<?xml version="1.0" encoding="UTF-8" standalone="no"?>
<svg xmlns="http://www.w3.org/2000/svg" xmlns:xlink="http://www.w3.org/1999/xlink" width="600px" height="400px">
    <style type="text/css">
        <![CDATA[

        svg {
            shape-rendering: crispEdges;
            font-family:monospace;
        }

        .line path {
            fill:none;
            stroke:#000000;
            stroke-width:2;
            stroke-linejoin: round;
        }

        .line path.sda {
            stroke:limegreen;
        }

        .line path.scl {
            stroke:dodgerblue;
        }

        .line path.sda.slave {
            stroke:red;
        }

        .line text {
            font-size:10px;
            fill:#000000;
            alignment-baseline: central;
        }

        .line text.sda {
            fill:limegreen;
        }

        .line text.scl {
            fill:dodgerblue;
        }

        .code>rect {
            stroke:#999999;
            fill: none;
            stroke-width: 1;
            stroke-dasharray: 1,1;
        }

        .code>text {
            font-size:6px;
            fill:#000000;
            text-anchor:middle;
            alignment-baseline: central;
        }

        .dim>path {
            fill: none;
            stroke: #000000;
            stroke-width: 0.5;
        }

        .dim>text {
            font-size: 6px;
            fill:#000000;
            text-anchor:middle;
        }
      ]]>
    </style>

    <defs>
        <pattern id="grid" width="10" height="10" patternUnits="userSpaceOnUse">
            <path d="M 10 0 L 0 0 0 10" fill="none" stroke="#DADADA" stroke-width="1"/>
        </pattern>

        <g id="pt" class="dim">
            <path d="M 1 0 h 18"/>

            <path d="M 3 -1 l -2 1 l 2 1"/>
            <path d="M 17 -1 l 2 1 l -2 1"/>

            <text x="10" y="-1">pt</text>
        </g>

        <g id="dt" class="dim">
            <path d="M 0 0 h 10"/>
            <path d="M 2 -1 l -2 1 l 2 1"/>
            <path d="M 8 -1 l 2 1 l -2 1"/>
            <text x="5" y="-1">dt</text>
        </g>

    </defs>

    <rect width="100%" height="100%" fill="url(#grid)"/>

    <g class="line" transform="translate(0, 0)">
        <text class="sda" x="0" y="25">SDA</text>
        <text class="scl" x="0" y="55">SCL</text>

        <g name="start" transform="translate(0, 0)">
            <g class="code" transform="translate(30, 10)">
                <text x="25" y="75">start()</text>
                <rect x="0" y="0" width="70" height="70"/>
            </g>

            <path class="sda" d="M 20 20 h40 v20 h40"/>
            <path class="scl" d="M 20 50 h60 v20 h20"/>

            <use xlink:href="#dt" x="30" y="47"/>
            <use xlink:href="#pt" x="40" y="47"/>
            <use xlink:href="#pt" x="60" y="47"/>
            <use xlink:href="#pt" x="80" y="47"/>

        </g>

        <g name="write" transform="translate(100, 0)">
            <g class="code" transform="translate(0, 10)">
                <text x="160" y="75">writeByte(0b10101100)</text>
                <rect x="0" y="0" width="320" height="70"/>

                <text x="20" y="45">1</text>
                <text x="60" y="45">0</text>
                <text x="100" y="45">1</text>
                <text x="140" y="45">0</text>
                <text x="180" y="45">1</text>
                <text x="220" y="45">1</text>
                <text x="260" y="45">0</text>
                <text x="300" y="45">0</text>
            </g>

            <path class="sda" d="M 0 40 v-20h40 v20h40 v-20h40 v20h40  v-20h40 v2v-2h40 v20h40 v-2v2h40"/>
            <path class="scl"
                  d="M 0 70 h10 v-20h20v20h20 v-20h20v20h20 v-20h20v20h20 v-20h20v20h20 v-20h20v20h20 v-20h20v20h20 v-20h20v20h20 v-20h20v20h10"/>

            <use xlink:href="#dt" x="0" y="47"/>
            <use xlink:href="#pt" x="10" y="47"/>
            <use xlink:href="#dt" x="30" y="47"/>
        </g>

        <g name="ack" transform="translate(420, 0)">
            <g class="code" transform="translate(0, 10)">
                <text x="25" y="75">ack()</text>
                <rect x="0" y="0" width="40" height="70"/>
            </g>

            <path name="ackSlave" class="sda slave" d="M -2 40 h40"/>
            <path name="ack" class="sda" d="M 40 40 h-2"/>

            <path name="ack" class="scl" d="M 0 70 h10 v-20h20v20h20"/>
            <use xlink:href="#dt" x="0" y="47"/>
            <use xlink:href="#pt" x="10" y="47"/>
            <use xlink:href="#dt" x="30" y="47"/>
        </g>

        <g name="stop" transform="translate(460, 0)">
            <g class="code" transform="translate(0, 10)">
                <rect x="0" y="0" width="60" height="70"/>
                <text x="25" y="75">stop()</text>
            </g>

            <path name="stop" class="sda" d="M 0 40 h40 v-20h30"/>
            <path name="stop" class="scl" d="M 0 70 h20 v-20h50"/>

            <use xlink:href="#pt" x="0" y="47"/>
            <use xlink:href="#pt" x="20" y="47"/>
            <use xlink:href="#pt" x="40" y="47"/>

        </g>
    </g>

    <g class="line" transform="translate(0, 90)">
        <text class="sda" x="0" y="25">SDA</text>
        <text class="scl" x="0" y="55">SCL</text>

        <g name="start" transform="translate(0, 0)">
            <g class="code" transform="translate(30, 10)">
                <text x="25" y="75">start()</text>
                <rect x="0" y="0" width="70" height="70"/>
            </g>

            <path name="start" class="sda" d="M 20 40 h10 v-20 h30 v20 h40"/>
            <path name="start" class="scl" d="M 20 70 h20 v-20 h40 v20 h20"/>

            <use xlink:href="#dt" x="30" y="47"/>
            <use xlink:href="#pt" x="40" y="47"/>
            <use xlink:href="#pt" x="60" y="47"/>
            <use xlink:href="#pt" x="80" y="47"/>
        </g>

        <g name="ack" transform="translate(420, 0)">
            <g class="code" transform="translate(0, 10)">
                <text x="25" y="75">ack()</text>
                <rect x="0" y="0" width="40" height="70"/>
            </g>

            <path name="ackSlave" class="sda slave" d="M -2 20 v20 h40 v-20"/>

            <path name="ack" class="scl" d="M 0 70 h10 v-20h20v20h20"/>
            <use xlink:href="#dt" x="0" y="47"/>
            <use xlink:href="#pt" x="10" y="47"/>
            <use xlink:href="#dt" x="30" y="47"/>
        </g>

        <g name="stop" transform="translate(460, 0)">
            <g class="code" transform="translate(0, 10)">
                <rect x="0" y="0" width="60" height="70"/>
                <text x="25" y="75">stop()</text>
            </g>

            <path name="stop" class="sda" d="M 0 20 v20 h40 v-20h30"/>
            <path name="stop" class="scl" d="M 0 70 h20 v-20h50"/>

            <use xlink:href="#pt" x="0" y="47"/>
            <use xlink:href="#pt" x="20" y="47"/>
            <use xlink:href="#pt" x="40" y="47"/>

        </g>

    </g>

    <g class="line" transform="translate(0, 170)">
        <text class="sda" x="0" y="25">SDA</text>
        <text class="scl" x="0" y="55">SCL</text>

        <g name="start" transform="translate(0, 0)">
            <g class="code" transform="translate(30, 10)">
                <text x="25" y="75">start()</text>
                <rect x="0" y="0" width="70" height="70"/>
            </g>

            <path name="start" class="sda" d="M 20 20 h40 v20 h40"/>
            <path name="start" class="scl" d="M 20 70 h20 v-20 h40 v20 h20"/>

            <use xlink:href="#dt" x="30" y="47"/>
            <use xlink:href="#pt" x="40" y="47"/>
            <use xlink:href="#pt" x="60" y="47"/>
            <use xlink:href="#pt" x="80" y="47"/>

        </g>
    </g>


</svg>
